# xmcd
#
# Track frame offsets:
# 150
# 28385
# 64117
# 93815
# 133585
# 167475
# 206107
# 245262
#
# Disc length: 3836 seconds
#
# Revision: 0
# Processed by: cddbd v1.4PL0 Copyright (c) Steve Scherf et al.
# Submitted via: Audion 3.0.2 (http://www.panic.com/audion/)
#
DISCID=690efa08
DTITLE=Haydn - Quatuor Op.51 Wiener Konzerthaus
DYEAR=1900
DGENRE=
TTITLE0=Intro
TTITLE1=Largo
TTITLE2=Grave
TTITLE3=Grave
TTITLE4=Largo
TTITLE5=Adagio
TTITLE6=Lento
TTITLE7=Largo - Presto
EXTD=
EXTT0=
EXTT1=
EXTT2=
EXTT3=
EXTT4=
EXTT5=
EXTT6=
EXTT7=
PLAYORDER=
